<svg xmlns="http://www.w3.org/2000/svg" width="44.072" height="50.158" viewBox="0 0 44.072 50.158"><path d="M712.657-256.7v7.015h19.888a5.537,5.537,0,0,1,5.612,5.849v4.454c0,6.124,6.212,7.568,6.212,7.568s-6.212,1.47-6.212,7.583v2.706c0,4.06-3.165,7.474-8.794,7.474s-9.657-2.518-9.657-9.2V-228.2l-7.049-.008v6.083c0,6.759,4.232,14.026,14.576,15.047,5.447.538,7.6.876,14.784,0,10.048-1.225,14.713-7.135,14.713-14.374V-256.7Zm32,15.026-.019-1.257c-.268-3.87-1.4-6.192-2.7-7.725,3.923.011,5.667.246,7.333,2.344s1.187,7.57,1.187,13.657c-1.817-.376-5.706-.758-5.783-4.276-.008-.931-.015-1.812-.019-2.743Zm-4.682,28.743a7.43,7.43,0,0,0,3.965-4.385c.575-1.71.144-5.922,1.147-8.105s3.6-2.617,5.371-2.994c.227,3.807.1,7.867-1.8,10.484S743.282-212.4,739.971-212.929Z" transform="translate(-712.657 256.698)" fill="#1a1a1a"/></svg>