<svg xmlns="http://www.w3.org/2000/svg" width="72" height="88" viewBox="0 0 72 88"><g transform="translate(-479 -86)"><rect width="72" height="88" transform="translate(479 86)" fill="#3155e5"/><path d="M7.371.216a7.955,7.955,0,0,1-3.578-.77,5.812,5.812,0,0,1-2.417-2.16A5.986,5.986,0,0,1,.513-5.94v-.945a.406.406,0,0,1,.459-.459H3.861a.406.406,0,0,1,.459.459v.945a2.756,2.756,0,0,0,.837,2.093,3.079,3.079,0,0,0,2.214.8,3.214,3.214,0,0,0,2.268-.8A2.712,2.712,0,0,0,10.5-5.94v-12.5a.406.406,0,0,1,.459-.459h2.862a.406.406,0,0,1,.459.459v12.5a5.986,5.986,0,0,1-.864,3.227,5.8,5.8,0,0,1-2.43,2.16A8.105,8.105,0,0,1,7.371.216ZM6.885,29.973a.406.406,0,0,1-.459-.459V22.845l-.054-.216L.918,11.64A.484.484,0,0,1,.837,11.4a.257.257,0,0,1,.108-.216.485.485,0,0,1,.3-.081H4.374a.555.555,0,0,1,.54.351l3.294,7.02a.15.15,0,0,0,.122.081q.068,0,.094-.081l3.294-7.02a.589.589,0,0,1,.54-.351h3.159q.4,0,.4.324a.384.384,0,0,1-.054.216L10.26,22.629l-.054.216v6.669a.406.406,0,0,1-.459.459Z" transform="translate(507 125)" fill="#fff"/></g></svg>